# Blender v2.90.0 OBJ File: ''
# www.blender.org
mtllib ARROW.mtl
o Arrow_Icosphere
v 0.000000 -1.143050 0.000000
v 0.723600 -0.447215 0.525720
v -0.276385 -0.447215 0.850640
v 0.723600 -0.447215 -0.525720
v -0.894425 -0.447215 0.000000
v -0.276385 -0.447215 -0.850640
v 0.723600 -0.447215 0.525720
v -0.276385 -0.447215 0.850640
v 0.723600 -0.447215 -0.525720
v -0.894425 -0.447215 0.000000
v -0.276385 -0.447215 -0.850640
v 0.723600 -0.447215 0.525720
v 0.579906 -0.342076 0.421321
v -0.221500 -0.342076 0.681718
v -0.276385 -0.447215 0.850640
v -0.716808 -0.342076 0.000000
v -0.894425 -0.447215 0.000000
v -0.221500 -0.342076 -0.681718
v -0.276385 -0.447215 -0.850640
v 0.723600 -0.447215 -0.525720
v 0.579906 -0.342076 -0.421321
vt 0.818181 0.000000
vt 0.727272 0.157461
vt 0.909090 0.157461
vt 0.636363 0.000000
vt 0.545454 0.157461
vt 0.090909 0.000000
vt 0.000000 0.157461
vt 0.181818 0.157461
vt 0.272727 0.000000
vt 0.363636 0.157461
vt 0.454545 0.000000
vt 0.000000 0.000000
vt 0.000000 0.000000
vt 0.000000 0.000000
vt 0.000000 0.000000
vt 0.000000 0.000000
vt 0.000000 0.000000
vt 0.000000 0.000000
vt 0.000000 0.000000
vt 0.000000 0.000000
vt 0.000000 0.000000
vt 0.000000 0.000000
vt 0.000000 0.000000
vt 0.000000 0.000000
vt 0.000000 0.000000
vt 0.000000 0.000000
vt 0.000000 0.000000
vt 0.000000 0.000000
vt 0.000000 0.000000
vt 0.000000 0.000000
vt 0.000000 0.000000
vn 0.2142 -0.7208 0.6592
vn 0.6931 -0.7208 0.0000
vn -0.5608 -0.7208 0.4074
vn -0.5608 -0.7208 -0.4074
vn 0.2142 -0.7208 -0.6592
vn 0.0000 0.0000 1.0000
vn 0.0000 1.0000 0.0000
vn 0.1825 0.8070 0.5616
vn 0.5905 0.8070 0.0000
vn -0.4777 0.8070 0.3471
vn -0.4777 0.8070 -0.3471
vn 0.1825 0.8070 -0.5616
usemtl None
s off
f 1/1/1 2/2/1 3/3/1
f 2/2/2 1/4/2 4/5/2
f 1/6/3 3/7/3 5/8/3
f 1/9/4 5/8/4 6/10/4
f 1/11/5 6/10/5 4/5/5
f 20/12/6 12/13/6 7/14/6 9/15/6
f 7/14/6 8/16/6 3/17/6 2/18/6
f 9/15/6 7/14/6 2/18/6 4/19/6
f 8/16/6 10/20/6 5/21/6 3/17/6
f 10/20/6 11/22/6 6/23/6 5/21/6
f 11/22/6 9/15/6 4/19/6 6/23/6
f 21/24/7 18/25/7 16/26/7 14/27/7 13/28/7
f 15/29/6 17/30/6 10/20/6 8/16/6
f 17/30/6 19/31/6 11/22/6 10/20/6
f 19/31/6 20/12/6 9/15/6 11/22/6
f 13/28/8 14/27/8 15/29/8 12/13/8
f 21/24/9 13/28/9 12/13/9 20/12/9
f 14/27/10 16/26/10 17/30/10 15/29/10
f 16/26/11 18/25/11 19/31/11 17/30/11
f 18/25/12 21/24/12 20/12/12 19/31/12
f 12/13/6 15/29/6 8/16/6 7/14/6
